PathFileType	4	(X/Y/Z)	path1_03_0-527.trc
DataRate	CameraRate	NumFrames	NumMarkers	Units	OrigDataRate	OrigDataStartFrame	OrigNumFrames
30	30	8	22	m	30	65	527
Frame#	Time	Hip			RHip			RKnee			RAnkle			RBigToe			RSmallToe			RHeel			LHip			LKnee			LAnkle			LBigToe			LSmallToe			LHeel			Neck			Head			Nose			RShoulder			RElbow			RWrist			LShoulder			LElbow			LWrist		
		X1	Y1	Z1	X2	Y2	Z2	X3	Y3	Z3	X4	Y4	Z4	X5	Y5	Z5	X6	Y6	Z6	X7	Y7	Z7	X8	Y8	Z8	X9	Y9	Z9	X10	Y10	Z10	X11	Y11	Z11	X12	Y12	Z12	X13	Y13	Z13	X14	Y14	Z14	X15	Y15	Z15	X16	Y16	Z16	X17	Y17	Z17	X18	Y18	Z18	X19	Y19	Z19	X20	Y20	Z20	X21	Y21	Z21	X22	Y22	Z22
66	2.2	2.6350084906967277	0.8303789828545176	0.6901225336190504	2.641372322493115	0.7933724432591494	0.6133252363086336	2.618235341959345	0.46901513824334295	0.5885815400979836	2.6947339255326708	0.0946856507439444	0.6201957950481487	2.4971676278436714	0.029693319288262108	0.5717800449071578	2.538362229271522	0.024275786654339295	0.5190658532580246	2.7409385964967	0.02763641233719444	0.6183190908783355	2.628901179580968	0.7954988241793983	0.7760880913073409	2.64246645720204	0.42861973429402117	0.7649583537609659	2.6938727434091376	0.09263839492723508	0.774042787381389	2.5308701452652977	0.0008502318583968326	0.7790264820474014	2.5485040488162958	0.02090545693806408	0.8361990814147896	2.7439775362964416	0.02759384398820201	0.7749209643274706	2.5886813421115673	1.4623302501451527	0.7020419727667452	2.5384662925424895	1.7029207335838186	0.6555433105749139	2.4494191253081548	1.5986408008375739	0.6776609395011645	2.6445228548936766	1.3599299175174504	0.5309492864612594	2.6732302414071984	1.0688051967441898	0.5171519982024908	2.6068723711490334	0.8469208570206509	0.46957456080751353	2.6089876497706728	1.3459243695574525	0.8502745616264521	2.651470065838746	1.069615812564404	0.8935539057417435	2.6365764538971743	0.8402608165587299	0.896284056654671
67	2.2333333333333334	2.634860076474702	0.8304289143160555	0.6899861001980098	2.641002959025427	0.793200277517625	0.6131130397232414	2.618219843763765	0.46873225295076537	0.588625981838639	2.6946923837420087	0.0942891706846919	0.6201877796633768	2.496935713585624	0.02977756043420156	0.5716327015590214	2.538338115981657	0.02436186946664318	0.5191276336681107	2.740840215500179	0.02739789972975191	0.618123343966339	2.6290561926310394	0.7951990711034306	0.7757226174522039	2.6426609949114344	0.4285533652588035	0.7649734955748762	2.6958342483839686	0.09095147025131871	0.7748228528276357	2.5310267379215	0.0007944816778055971	0.7792815485211371	2.547412366267399	0.02212315218333754	0.8364932866463691	2.7453404351282638	0.02716075901383636	0.7759927006083064	2.588443041530215	1.4623554000004872	0.7022095562241459	2.5409804946309547	1.7047490184293743	0.6519870010591463	2.449336081507168	1.5987491184691296	0.6771438635324943	2.6443496872232584	1.3598492834991283	0.5307955144404883	2.672966264501204	1.068669846333401	0.5169710892386534	2.6069469718021847	0.8469031510227589	0.4695140224835078	2.608098121634055	1.3457986073270087	0.851069040961502	2.651434874282055	1.0696656238052604	0.8933739426045393	2.636638361757428	0.840340186575327	0.8963396151530273
68	2.2666666666666666	2.6345515139222164	0.8305178658848397	0.6898056058374913	2.640567165656601	0.7928118686202829	0.6130625706441312	2.618307713124625	0.4683900975690481	0.5887125079422064	2.6946400758085334	0.0939644468729876	0.6200673803516583	2.4968719969611506	0.029711489506207885	0.5715390157951711	2.538262090400221	0.02437214796741132	0.5191094232845874	2.7409275459714797	0.026835149751254922	0.6174109862561702	2.629004654120156	0.7947045843140078	0.7753456341707335	2.6427985600328237	0.4283946258025709	0.7654759385804584	2.6971485099067025	0.08991602071716716	0.7764917833320024	2.530949437859307	0.00046726331312084586	0.7793221833327553	2.546227384614508	0.022931215174904457	0.8365878271044906	2.7458166577541707	0.02687664123093558	0.7765110203460752	2.5880742120277995	1.4624762698639329	0.7022018924355671	2.5440399145030264	1.7067119259963912	0.6481586153299442	2.449226127464281	1.599093568068698	0.6771435301008794	2.6443003904892275	1.359707375785663	0.5307259190943991	2.6727782131824482	1.068526474741382	0.5169145139274772	2.6070701083370302	0.8469004840505716	0.4695039379184571	2.6049729597972218	1.3454301719486181	0.8541457913861412	2.651427644463339	1.0697428571593648	0.8931406253285881	2.636611051420725	0.8404286023220837	0.8963302810802617
69	2.3	2.634207647267365	0.8306428359790664	0.6896726914820271	2.64015041364982	0.7923565666723362	0.6131519394914825	2.6184529827232104	0.4680877449790371	0.5888357567829152	2.6944277258444385	0.09389828011368656	0.6195973118505769	2.4970393663311405	0.0294908598985295	0.5716440826102448	2.5381197249897065	0.024349245653526398	0.5190432376388182	2.7411643720459686	0.026170240923456455	0.6163566571338283	2.6288140579544517	0.7941442415523076	0.7750157337289906	2.6429129073681996	0.4281675295041912	0.7666070678421848	2.6974076905010818	0.08983716763524131	0.7784369828264441	2.530687545414206	-5.873283396555146e-05	0.7792045581916157	2.5441454422514553	0.023685195721048657	0.836223566660858	2.745316875546534	0.026860058590476847	0.7763806368129849	2.5876850989232176	1.4626516005227577	0.7020735951952265	2.546549988645197	1.708031800760668	0.6454554224520185	2.449098921811105	1.5995911290050218	0.6775896082538386	2.644287423727243	1.3595550274180537	0.5307156152888395	2.672626712664878	1.0683856492251915	0.5170081279794406	2.6071647858486937	0.8469114710939172	0.4695313917266162	2.600570966178782	1.3449638715319254	0.8584551815094719	2.651458421545604	1.0698528071422027	0.8929045150871083	2.6365051513537243	0.840522910202049	0.8962352180407325
70	2.333333333333333	2.6339087295777364	0.8307823913688093	0.6896662584407481	2.639809721176251	0.7919502486244653	0.613331846411458	2.61856402101111	0.4679364681797123	0.5890063788408292	2.6938555214174085	0.09429575953310501	0.6185466645680132	2.497502510214824	0.02910830737484961	0.5721687134581088	2.537978284143127	0.024335403860007297	0.5189781670717695	2.7414644566643216	0.02562338807990711	0.6150563467083271	2.6285752196978147	0.7936295651647824	0.7747758669662244	2.6429933310568674	0.4279158748263629	0.7684790137229074	2.6964284436527057	0.09073684353993604	0.7795787602763418	2.530309132930072	-0.0007035203377615078	0.7789631655188658	2.541002282446298	0.024615712299783207	0.8354117053866486	2.744268393493804	0.027094773804071097	0.775962126941265	2.5873954913365482	1.4628674574270957	0.7019749354236078	2.547755481586984	1.7083090406732497	0.6446864100361769	2.448967843063014	1.6000889093373556	0.6782528321216712	2.64421572034839	1.3594680810137356	0.5307475483322805	2.6724335811859485	1.0682765733931385	0.5172633696975535	2.607193620459649	0.8468828123960528	0.46956102741034694	2.5961676023408766	1.3445486932513788	0.8627121359750296	2.6515057647150004	1.0699666606370255	0.8927194010710436	2.636339206184404	0.8406107873574599	0.8960259060086868
71	2.3666666666666667	2.6337032413104753	0.8308854985589779	0.6898058113022273	2.639582224466299	0.7916545169695445	0.6135834035736358	2.6185233240653223	0.46799951751353014	0.5892225839032551	2.6927814316119063	0.09528215275724566	0.6167657821954639	2.49829656578802	0.02857830598349802	0.5733632777045401	2.537916825704729	0.024353686037511917	0.518949920945448	2.7417442764779305	0.025309138310875046	0.6135559534201491	2.628375008114644	0.7932419355507856	0.7747281731194289	2.6430117548225516	0.4276801980999283	0.7709214401146545	2.6945179361471214	0.09245610895603043	0.779787037629562	2.5298954972202643	-0.0013132514182374092	0.7786231201195821	2.537560083447727	0.025618815542356285	0.8344693500514562	2.743247895695309	0.027429208669264123	0.7756842051722357	2.587298917625656	1.4631071483374112	0.7020155704327131	2.5473558270627463	1.7075477260376515	0.6457584953870104	2.448820595559345	1.6003840298317886	0.6787614739875365	2.644079991617838	1.3594929064114203	0.530821043758776	2.6721688906932473	1.0682262688908148	0.5176262812358416	2.6071648634291087	0.8467484858096695	0.4695533127330233	2.592899571028028	1.3442662024647791	0.8658828194593813	2.651537206840981	1.0700209895114314	0.8926155418015009	2.6361327919863538	0.8406495430743905	0.8957194375554088
72	2.4	2.6336218535529476	0.8308952968075326	0.690040890308579	2.6394912654046294	0.791473546171745	0.6138408153834937	2.6182659630409697	0.4682402598351062	0.5894462614185968	2.6912551684595556	0.09675298168134593	0.6143504260902584	2.499415754946221	0.027927393452685828	0.575355324104172	2.5380333042028083	0.024366917047424913	0.518954131099519	2.741932890716074	0.025216964234320603	0.6119973382810333	2.628284079042807	0.7929830094087769	0.7749246632205194	2.64296226431043	0.4275581101074978	0.773193862459772	2.6923521622075697	0.09466328807278045	0.779778512663686	2.5294316163618626	-0.001642023729574578	0.7782664627949405	2.5345623835255173	0.026575586853533634	0.8337124149771458	2.7426601991088373	0.02772061822459257	0.775773098653248	2.587410791389139	1.4633245248020128	0.702145666525775	2.5454968810762573	1.7059910657788053	0.6479165918399233	2.4486367581872766	1.600343224081483	0.6788164168117238	2.6439337941043317	1.3596132232363332	0.5309125091732669	2.6718396064655656	1.0682416896679834	0.5179465110017611	2.6071439351432524	0.8464925382746469	0.46949904099066575	2.591179733344023	1.3440977783269625	0.86766289748574	2.6515405231494142	1.069961249994508	0.8925744028530447	2.6359222630777555	0.8405832123339713	0.8953921519664826
73	2.433333333333333	2.63368625955865	0.830792403162169	0.6902711123364821	2.6395933615388065	0.7913766650382361	0.6139704400204556	2.6178773991570434	0.468510762304854	0.5896329301186399	2.689518530806682	0.09837118997017419	0.6116547997472995	2.500686065598237	0.02723051781387823	0.5779115480149881	2.5383181224202973	0.024304750960341556	0.5189412807566752	2.741991599237432	0.025243406421284136	0.6106861161769288	2.62833433746987	0.7928036503668069	0.775253947637279	2.6428454141267492	0.4276568619014725	0.774133265574094	2.690409583158405	0.0969365275514063	0.7798476625084215	2.528755636161335	-0.001466289178960396	0.7780577342381388	2.5321754504759473	0.02749195225065114	0.8332558603171775	2.7423440230461464	0.027982565466093824	0.7760065017409179	2.5876495004868416	1.4634596392856418	0.7022154766064849	2.5429673158200137	1.7042360094139528	0.6500891804749704	2.448426438951825	1.599987802124002	0.6784067412710888	2.643826274715236	1.3597926334887163	0.5309778763141662	2.671423344406675	1.0683263061337807	0.5180018892332781	2.60721382330777	0.846151213153844	0.469427261837349	2.590791943687232	1.343987635255353	0.8683065268665234	2.6515345367070333	1.0697777800343127	0.8925162754583357	2.6357817586031222	0.8403879180090856	0.8951156527445724
